<svg t="1623726224770" class="icon" viewBox="0 0 1024 1024" version="1.1" xmlns="http://www.w3.org/2000/svg" p-id="9346" width="200" height="200"><path d="M748.2 697.6c-39.2 0-70.8-5.4-96.6-16.4-29-12.4-51-31.6-67.4-59-20.4-34-31.8-79.4-36.4-148.6-1.4-3.8-2.2-7.8-2.2-12.2 0-1.2 0-2.2-0.2-3.4-0.2-1-0.2-2.2-0.4-3.2s-0.4-2.2-0.8-3.2-0.6-2-1.2-3.2c-0.4-1-0.8-2-1.4-3-0.6-1-1-2-1.8-2.8-0.6-0.8-1.2-1.8-2-2.6s-1.4-1.6-2.2-2.4c-0.8-0.8-1.6-1.6-2.4-2.2-0.8-0.6-1.8-1.4-2.6-2-1-0.6-1.8-1.2-2.8-1.8-1-0.6-2-1-3-1.4-1-0.4-2-0.8-3.2-1.2-1-0.4-2.2-0.6-3.2-0.8-1-0.2-2.2-0.4-3.2-0.4-2.2-0.2-4.4-0.2-6.6 0-1 0.2-2.2 0.2-3.2 0.4s-2.2 0.4-3.2 0.8-2.2 0.6-3.2 1.2c-1 0.4-2 0.8-3 1.4-1 0.6-2 1-2.8 1.8-1 0.6-1.8 1.2-2.6 2-0.8 0.6-1.6 1.4-2.4 2.2-0.8 0.8-1.6 1.6-2.2 2.4-0.8 0.8-1.4 1.8-2 2.6-0.6 1-1.2 1.8-1.8 2.8-0.6 1-1 2-1.4 3-0.4 1-0.8 2-1.2 3.2-0.4 1-0.6 2.2-0.8 3.2-0.2 1-0.4 2.2-0.4 3.2-0.2 1-0.2 2.2-0.2 3.4 0 4.2-0.8 8.4-2.2 12.2-4.4 69.2-15.8 114.6-36.4 148.6-40.6 67.6-113 75.4-164 75.4-39.2 0-70.8-5.4-96.6-16.4-29-12.4-51-31.6-67.4-59-24.6-41-36.2-98.6-38.2-194.6h-0.4c-18.6 0-33.8-15.2-33.8-33.8S54.4 360 73 360H96c7.6-4.6 18.4-10 33.8-15.2 37-12.4 86-18.6 145.6-18.6s108.6 6.2 145.6 18.6c29.6 9.8 42.8 20.8 47 25 1.6-0.8 3.2-1.4 4.8-2.2 3-1.2 6.2-2.4 9.4-3.4s6.4-1.8 9.6-2.4c3.2-0.6 6.6-1.2 9.8-1.4 6.6-0.6 13.2-0.6 19.8 0 3.2 0.4 6.6 0.8 9.8 1.4 3.2 0.6 6.4 1.4 9.6 2.4 3.2 1 6.4 2 9.4 3.4 1.6 0.6 3.2 1.4 4.8 2.2 4.2-4.2 17.2-15.2 47-25 37-12.4 86-18.6 145.6-18.6s108.6 6.2 145.6 18.6c15.4 5.2 26.4 10.6 33.8 15.2H950c18.6 0 33.8 15.2 33.8 33.8s-15.2 33.8-33.8 33.8h-0.4c-2 95.8-13.6 153.6-38.2 194.6-39.8 67.6-112.2 75.4-163.2 75.4z m-134.8-284.6c1 89 10.2 143.2 28.8 174.4 22.6 37.6 64.2 42.6 106 42.6 70.8 0 92.8-20.6 106-42.6 18.8-31.2 27.8-85.4 28.8-174.4-17.4-7.4-57.2-19.2-134.8-19.2s-117.4 11.8-134.8 19.2z m-472.6 0c1 89 10.2 143.2 28.8 174.4 22.6 37.6 64.2 42.6 106 42.6 70.8 0 92.8-20.6 106-42.6 18.8-31.2 27.8-85.4 28.8-174.4-17.4-7.4-57.2-19.2-134.8-19.2s-117.2 11.8-134.8 19.2z" p-id="9347" fill="#2c2c2c"></path></svg>