<svg t="1621698121646" class="icon" viewBox="0 0 1024 1024" version="1.1" xmlns="http://www.w3.org/2000/svg" p-id="3840" width="200" height="200"><path d="M512 128C323.413333 128 170.666667 204.373333 170.666667 298.666667 170.666667 392.96 323.413333 469.333333 512 469.333333 700.586667 469.333333 853.333333 392.96 853.333333 298.666667 853.333333 204.373333 700.586667 128 512 128M170.666667 384 170.666667 512C170.666667 606.293333 323.413333 682.666667 512 682.666667 700.586667 682.666667 853.333333 606.293333 853.333333 512L853.333333 384C853.333333 478.293333 700.586667 554.666667 512 554.666667 323.413333 554.666667 170.666667 478.293333 170.666667 384M170.666667 597.333333 170.666667 725.333333C170.666667 819.626667 323.413333 896 512 896 700.586667 896 853.333333 819.626667 853.333333 725.333333L853.333333 597.333333C853.333333 691.626667 700.586667 768 512 768 323.413333 768 170.666667 691.626667 170.666667 597.333333Z" p-id="3841"></path></svg>