<svg t="1621844570648" class="icon" viewBox="0 0 1024 1024" version="1.1" xmlns="http://www.w3.org/2000/svg" p-id="5691" width="48" height="48"><path d="M433.9 863.8h155.4c8.9 0 16.1-7.2 16.1-16.1v-155c0-8.9-7.2-16.1-16.1-16.1H433.9c-8.9 0-16.1 7.2-16.1 16.1v154.9c0 9 7.2 16.2 16.1 16.2zM175.8 606.1h155.4c8.9 0 16.1-7.2 16.1-16.1V434c0-8.9-7.2-16.1-16.1-16.1H175.8c-8.9 0-16.1 7.2-16.1 16.1v156c-0.1 8.9 7.2 16.1 16.1 16.1z m258.1 0h155.4c8.9 0 16.1-7.2 16.1-16.1V434c0-8.9-7.2-16.1-16.1-16.1H433.9c-8.9 0-16.1 7.2-16.1 16.1v156c0 8.9 7.2 16.1 16.1 16.1z m-102.7 70.4H175.8c-8.9 0-16.1 7.2-16.1 16.1v154.9c0 8.9 7.2 16.1 16.1 16.1h155.4c8.9 0 16.1-7.2 16.1-16.1V692.7c0.1-8.9-7.2-16.2-16.1-16.2z m360.9 187.3h155.3c8.9 0 16.1-7.2 16.1-16.1v-155c0-8.9-7.2-16.1-16.1-16.1H692.1c-8.9 0-16.1 7.2-16.1 16.1v154.9c-0.1 9 7.2 16.2 16.1 16.2zM159.6 176v155.3c0 8.9 7.2 16.1 16.1 16.1h671.6c8.9 0 16.1-7.2 16.1-16.1V176c0-8.9-7.2-16.1-16.1-16.1H175.8c-8.9 0-16.2 7.2-16.2 16.1z m532.5 430.1h155.3c8.9 0 16.1-7.2 16.1-16.1V434c0-8.9-7.2-16.1-16.1-16.1H692.1c-8.9 0-16.1 7.2-16.1 16.1v156c-0.1 8.9 7.2 16.1 16.1 16.1z" p-id="5692" fill="#ffffff"></path></svg>