<svg width="1024" height="1024" xmlns="http://www.w3.org/2000/svg" p-id="3840" version="1.1" class="icon" t="1621698121646">

 <g>
  <title>background</title>
  <rect fill="none" id="canvas_background" height="613" width="1278" y="-1" x="-1"/>
 </g>
 <g>
  <title>Layer 1</title>
  <path fill="#ffffff" id="svg_1" p-id="3841" d="m512,128c-188.58667,0 -341.33333,76.37333 -341.33333,170.66667c0,94.29333 152.74666,170.66666 341.33333,170.66666c188.58667,0 341.33333,-76.37333 341.33333,-170.66666c0,-94.29334 -152.74666,-170.66667 -341.33333,-170.66667m-341.33333,256l0,128c0,94.29333 152.74666,170.66667 341.33333,170.66667c188.58667,0 341.33333,-76.37334 341.33333,-170.66667l0,-128c0,94.29333 -152.74666,170.66667 -341.33333,170.66667c-188.58667,0 -341.33333,-76.37334 -341.33333,-170.66667m0,213.33333l0,128c0,94.29334 152.74666,170.66667 341.33333,170.66667c188.58667,0 341.33333,-76.37333 341.33333,-170.66667l0,-128c0,94.29334 -152.74666,170.66667 -341.33333,170.66667c-188.58667,0 -341.33333,-76.37333 -341.33333,-170.66667z"/>
 </g>
</svg>